<svg width="42" height="42" viewBox="0 0 42 42" fill="none" xmlns="http://www.w3.org/2000/svg">
<g filter="url(#filter0_d_96_148)">
<path d="M24.7348 33.9553C24.2197 34.0709 23.7692 33.9622 23.3834 33.6292C22.9965 33.2973 22.803 32.8423 22.803 32.2641C22.803 31.8594 22.9393 31.4911 23.2117 31.1592C23.483 30.8262 23.819 30.6018 24.2197 30.4862C24.9352 30.3127 25.6295 30.0884 26.3026 29.8132C26.9746 29.5391 27.6254 29.1997 28.2551 28.795C28.6271 28.5637 29.0352 28.4701 29.4794 28.514C29.9224 28.5568 30.287 28.7227 30.5732 29.0118C30.9739 29.4166 31.1531 29.8791 31.1107 30.3995C31.0672 30.9198 30.8165 31.3246 30.3586 31.6137C29.4714 32.1918 28.563 32.6688 27.6334 33.0447C26.7027 33.4205 25.7365 33.724 24.7348 33.9553ZM33.0202 26.5401C32.734 26.251 32.5692 25.8896 32.5257 25.456C32.4833 25.0224 32.5766 24.6321 32.8056 24.2852C33.1776 23.6492 33.5067 22.9987 33.7929 22.3338C34.0791 21.6689 34.3081 20.9606 34.4798 20.209C34.5943 19.8043 34.8232 19.4573 35.1667 19.1682C35.5101 18.8792 35.8822 18.7346 36.2828 18.7346C36.8552 18.7346 37.3063 18.937 37.636 19.3417C37.9645 19.7464 38.0572 20.209 37.9141 20.7293C37.6852 21.7701 37.3772 22.7605 36.9903 23.7006C36.6045 24.6396 36.1254 25.5283 35.553 26.3666C35.2668 26.8003 34.8736 27.0385 34.3733 27.0813C33.8719 27.1252 33.4209 26.9448 33.0202 26.5401ZM36.2399 15.2655C35.8392 15.2655 35.4746 15.121 35.1461 14.8319C34.8164 14.5428 34.5943 14.1959 34.4798 13.7911C34.3081 13.0395 34.0791 12.3237 33.7929 11.6438C33.5067 10.965 33.1776 10.322 32.8056 9.71494C32.5766 9.36803 32.4833 8.97776 32.5257 8.54412C32.5692 8.11048 32.734 7.74912 33.0202 7.46003C33.4209 7.0553 33.8719 6.86739 34.3733 6.8963C34.8736 6.92521 35.2668 7.15648 35.553 7.59012C36.1254 8.42848 36.612 9.33161 37.0126 10.2995C37.4133 11.2685 37.7281 12.259 37.9571 13.2708C38.0716 13.7911 37.9571 14.2537 37.6136 14.6584C37.2702 15.0631 36.8123 15.2655 36.2399 15.2655ZM17.4798 33.9119C13.5589 32.9868 10.3318 30.9632 7.79838 27.841C5.26613 24.7188 4 21.1052 4 17.0001C4 12.866 5.25926 9.22349 7.77778 6.07239C10.2963 2.92128 13.516 0.912096 17.4369 0.0448204C17.952 -0.0708163 18.4031 0.0373041 18.79 0.369182C19.1758 0.702215 19.3687 1.14337 19.3687 1.69264C19.3687 2.09737 19.2325 2.46568 18.96 2.79755C18.6887 3.13059 18.3527 3.35492 17.952 3.47056C14.8897 4.2222 12.3712 5.85557 10.3965 8.37067C8.42172 10.8858 7.43434 13.7622 7.43434 17.0001C7.43434 20.2379 8.42172 23.093 10.3965 25.5653C12.3712 28.0364 14.8897 29.6767 17.952 30.4862C18.3527 30.6018 18.6887 30.8331 18.96 31.18C19.2325 31.5269 19.3687 31.9027 19.3687 32.3075C19.3687 32.8568 19.1827 33.2904 18.8106 33.6084C18.4386 33.9264 17.995 34.0276 17.4798 33.9119ZM28.3838 5.24847C27.7256 4.84375 27.053 4.48932 26.3662 4.18519C25.6793 3.88223 24.9781 3.64401 24.2626 3.47056C23.862 3.35492 23.5185 3.13059 23.2323 2.79755C22.9461 2.46568 22.803 2.09737 22.803 1.69264C22.803 1.14337 22.9965 0.702215 23.3834 0.369182C23.7692 0.0373041 24.2197 -0.0708163 24.7348 0.0448204C25.7365 0.276094 26.7096 0.579641 27.654 0.95546C28.5985 1.33128 29.5143 1.80828 30.4015 2.38646C30.8594 2.67556 31.1101 3.08029 31.1536 3.60065C31.196 4.12102 31.0168 4.58356 30.6162 4.98829C30.33 5.27738 29.9797 5.45084 29.5653 5.50866C29.1497 5.56648 28.7559 5.47975 28.3838 5.24847Z" fill="#7B3D11"/>
<path d="M21.8687 25.7384C21.6397 25.7384 21.4251 25.702 21.2247 25.6291C21.0244 25.5574 20.8384 25.4493 20.6667 25.3048C18.7778 23.5413 17.3611 21.8935 16.4167 20.3613C15.4722 18.8291 15 17.4126 15 16.1117C15 13.9435 15.6943 12.2164 17.0829 10.9306C18.4704 9.64352 20.0657 9 21.8687 9C23.6717 9 25.2675 9.64352 26.6562 10.9306C28.0436 12.2164 28.7374 13.9435 28.7374 16.1117C28.7374 17.4126 28.2652 18.8291 27.3207 20.3613C26.3763 21.8935 24.9596 23.5413 23.0707 25.3048C22.899 25.4493 22.713 25.5574 22.5126 25.6291C22.3123 25.702 22.0976 25.7384 21.8687 25.7384ZM21.8687 17.6728C22.3838 17.6728 22.8206 17.4924 23.1789 17.1316C23.5361 16.7696 23.7146 16.3285 23.7146 15.8081C23.7146 15.3167 23.5361 14.883 23.1789 14.5072C22.8206 14.1314 22.3838 13.9435 21.8687 13.9435C21.3535 13.9435 20.9168 14.1314 20.5585 14.5072C20.2013 14.883 20.0227 15.3167 20.0227 15.8081C20.0227 16.3285 20.2013 16.7696 20.5585 17.1316C20.9168 17.4924 21.3535 17.6728 21.8687 17.6728Z" fill="#FFA111"/>
</g>
<defs>
<filter id="filter0_d_96_148" x="0" y="0" width="42" height="42" filterUnits="userSpaceOnUse" color-interpolation-filters="sRGB">
<feFlood flood-opacity="0" result="BackgroundImageFix"/>
<feColorMatrix in="SourceAlpha" type="matrix" values="0 0 0 0 0 0 0 0 0 0 0 0 0 0 0 0 0 0 127 0" result="hardAlpha"/>
<feOffset dy="4"/>
<feGaussianBlur stdDeviation="2"/>
<feComposite in2="hardAlpha" operator="out"/>
<feColorMatrix type="matrix" values="0 0 0 0 0 0 0 0 0 0 0 0 0 0 0 0 0 0 0.25 0"/>
<feBlend mode="normal" in2="BackgroundImageFix" result="effect1_dropShadow_96_148"/>
<feBlend mode="normal" in="SourceGraphic" in2="effect1_dropShadow_96_148" result="shape"/>
</filter>
</defs>
</svg>
