<svg width="106" height="87" viewBox="0 0 106 87" fill="none" xmlns="http://www.w3.org/2000/svg">
<path d="M85.8726 43.5V43.5C92.38 43.5 99.6676 39.1508 99.6676 32.6434V10.2353C99.6676 4.60588 94.7368 0 88.6427 0H11.0803C4.98615 0 0 4.60588 0 10.2353V61.4118C0 67.0412 4.98615 71.6471 11.0803 71.6471H55.8727C57.2395 71.6471 58.1717 70.455 58.1717 69.0882V69.0882C58.1717 54.9635 70.5817 43.5 85.8726 43.5ZM54.7922 36.0794C51.6898 37.5124 47.9778 37.5124 44.8753 36.0794L13.795 21.75C12.9759 21.3674 12.2882 20.7818 11.8088 20.0588C11.3294 19.3357 11.0771 18.5038 11.0803 17.6559C11.0803 14.2782 14.9584 12.0265 18.2271 13.5618L34.4386 21.0362C44.2255 25.5485 55.4975 25.5485 65.2844 21.0362L81.4958 13.5618C82.2497 13.2114 83.0882 13.0456 83.9312 13.0803C84.7742 13.115 85.5935 13.3489 86.3107 13.7597C87.0278 14.1705 87.6188 14.7445 88.0271 15.4267C88.4354 16.1088 88.6474 16.8764 88.6427 17.6559C88.6427 19.3959 87.59 20.9824 85.928 21.75L54.7922 36.0794ZM85.8726 51.1765C75.1801 51.1765 66.482 59.2112 66.482 69.0882C66.482 78.9653 75.1801 87 85.8726 87C96.5651 87 105.263 78.9653 105.263 69.0882C105.263 59.2112 96.5651 51.1765 85.8726 51.1765ZM96.9529 69.0882C96.9529 70.5212 95.7341 71.6471 94.1828 71.6471H77.5623C76.0111 71.6471 74.7922 70.5212 74.7922 69.0882C74.7922 67.6553 76.0111 66.5294 77.5623 66.5294H94.1828C95.7341 66.5294 96.9529 67.6553 96.9529 69.0882Z" fill="#944A07"/>
</svg>
