<svg width="38" height="35" viewBox="0 0 38 35" fill="none" xmlns="http://www.w3.org/2000/svg">
<path d="M31 17.5C32.84 17.5 34.5 18.0353 35.98 18.9206V4.11765C35.98 1.85294 34.2 0 32 0H4C1.8 0 0 1.85294 0 4.11765V24.7059C0 26.9706 1.8 28.8235 4 28.8235H21.1C21.06 28.4735 21 28.1441 21 27.7941C21 22.1118 25.48 17.5 31 17.5ZM19.78 14.5147C18.66 15.0912 17.32 15.0912 16.2 14.5147L4.98 8.75C4.68431 8.59607 4.43604 8.36049 4.26297 8.06962C4.0899 7.77874 3.99885 7.44404 4 7.10294C4 5.74412 5.4 4.83824 6.58 5.45588L18 11.3235L29.42 5.45588C29.6921 5.31494 29.9948 5.24825 30.2992 5.26219C30.6035 5.27613 30.8993 5.37024 31.1581 5.53552C31.417 5.70079 31.6304 5.93169 31.7778 6.20613C31.9252 6.48057 32.0017 6.78936 32 7.10294C32 7.80294 31.62 8.44118 31.02 8.75L19.78 14.5147ZM31 20.5882C27.14 20.5882 24 23.8206 24 27.7941C24 31.7676 27.14 35 31 35C34.86 35 38 31.7676 38 27.7941C38 23.8206 34.86 20.5882 31 20.5882ZM35 27.7941C35 28.3706 34.56 28.8235 34 28.8235H28C27.44 28.8235 27 28.3706 27 27.7941C27 27.2176 27.44 26.7647 28 26.7647H34C34.56 26.7647 35 27.2176 35 27.7941Z" fill="white"/>
</svg>
