<svg width="105" height="87" viewBox="0 0 105 87" fill="none" xmlns="http://www.w3.org/2000/svg">
<path d="M85.6579 43.5C92.1466 43.5 99.4184 39.1652 99.4184 32.6765V10.2353C99.4184 4.60588 94.5 0 88.4211 0H11.0526C4.97368 0 0 4.60588 0 10.2353V61.4118C0 67.0412 4.97368 71.6471 11.0526 71.6471H55.7267C57.0935 71.6471 58.0263 70.4551 58.0263 69.0882C58.0263 54.9635 70.4053 43.5 85.6579 43.5ZM54.6553 36.0794C51.5605 37.5124 47.8579 37.5124 44.7632 36.0794L13.7605 21.75C12.9435 21.3674 12.2575 20.7818 11.7793 20.0588C11.301 19.3357 11.0494 18.5038 11.0526 17.6559C11.0526 14.2782 14.9211 12.0265 18.1816 13.5618L34.2821 21.0037C44.0869 25.5356 55.3868 25.5356 65.1916 21.0037L81.2921 13.5618C82.044 13.2114 82.8805 13.0456 83.7214 13.0803C84.5623 13.115 85.3795 13.3489 86.0949 13.7597C86.8102 14.1705 87.3998 14.7445 87.8071 15.4267C88.2143 16.1088 88.4257 16.8764 88.4211 17.6559C88.4211 19.3959 87.3711 20.9824 85.7132 21.75L54.6553 36.0794ZM85.6579 51.1765C74.9921 51.1765 66.3158 59.2112 66.3158 69.0882C66.3158 78.9653 74.9921 87 85.6579 87C96.3237 87 105 78.9653 105 69.0882C105 59.2112 96.3237 51.1765 85.6579 51.1765ZM96.7105 69.0882C96.7105 70.5212 95.4947 71.6471 93.9474 71.6471H77.3684C75.8211 71.6471 74.6053 70.5212 74.6053 69.0882C74.6053 67.6553 75.8211 66.5294 77.3684 66.5294H93.9474C95.4947 66.5294 96.7105 67.6553 96.7105 69.0882Z" fill="white"/>
</svg>
