<svg width="20" height="23" viewBox="0 0 20 23" fill="none" xmlns="http://www.w3.org/2000/svg">
<path d="M1 5.91504H3H19" fill="white"/>
<path d="M1 5.91504H3H19" stroke="#944A07" stroke-width="2" stroke-linecap="round" stroke-linejoin="round"/>
<path d="M17 5.91504V19.915C17 20.4455 16.7893 20.9542 16.4142 21.3293C16.0391 21.7043 15.5304 21.915 15 21.915H5C4.46957 21.915 3.96086 21.7043 3.58579 21.3293C3.21071 20.9542 3 20.4455 3 19.915V5.91504M6 5.91504V3.91504C6 3.38461 6.21071 2.8759 6.58579 2.50083C6.96086 2.12575 7.46957 1.91504 8 1.91504H12C12.5304 1.91504 13.0391 2.12575 13.4142 2.50083C13.7893 2.8759 14 3.38461 14 3.91504V5.91504" fill="white"/>
<path d="M17 5.91504V19.915C17 20.4455 16.7893 20.9542 16.4142 21.3293C16.0391 21.7043 15.5304 21.915 15 21.915H5C4.46957 21.915 3.96086 21.7043 3.58579 21.3293C3.21071 20.9542 3 20.4455 3 19.915V5.91504M6 5.91504V3.91504C6 3.38461 6.21071 2.8759 6.58579 2.50083C6.96086 2.12575 7.46957 1.91504 8 1.91504H12C12.5304 1.91504 13.0391 2.12575 13.4142 2.50083C13.7893 2.8759 14 3.38461 14 3.91504V5.91504" stroke="#944A07" stroke-width="2" stroke-linecap="round" stroke-linejoin="round"/>
<path d="M8 10.915V16.915" stroke="#944A07" stroke-width="2" stroke-linecap="round" stroke-linejoin="round"/>
<path d="M12 10.915V16.915" stroke="#944A07" stroke-width="2" stroke-linecap="round" stroke-linejoin="round"/>
</svg>
