<svg width="35" height="32" viewBox="0 0 35 32" fill="none" xmlns="http://www.w3.org/2000/svg">
<path d="M17.1268 3.91027L17.5058 4.33689L17.8789 3.90507C19.8437 1.63099 22.3299 0.5 25.3753 0.5C27.8807 0.5 29.9855 1.41198 31.7196 3.25201C33.4674 5.1067 34.3867 7.22146 34.5 9.61146C34.4963 11.4549 33.5922 13.7333 31.674 16.4693C29.7424 19.2244 27.8462 21.5175 25.9865 23.3533C24.1605 25.1559 21.3324 27.8118 17.4989 31.3236C13.6274 27.811 10.7706 25.1544 8.9253 23.3515C7.04757 21.5168 5.15237 19.2251 3.24098 16.4713C1.33876 13.7307 0.465205 11.4516 0.50106 9.60973L0.501155 9.60973V9.6C0.501155 7.09713 1.38975 4.99683 3.17773 3.2686C4.97181 1.53446 7.12665 0.61329 9.66592 0.500005C12.6251 0.502773 15.102 1.63129 17.1268 3.91027Z" fill="#643001" stroke="black"/>
</svg>
